<svg xmlns="http://www.w3.org/2000/svg" xml:space="preserve" style="fill-rule:evenodd;clip-rule:evenodd;stroke-linejoin:round;stroke-miterlimit:2" viewBox="0 0 512 512"><circle cx="256" cy="256" r="256" style="fill:#02001a"/><path d="M227.761 19.017C113.573 34.56 17.543 130.263 17.543 248.699c0 26.465 1.252 51.945 9.536 77.361 2.178 6.691 4.975 13.537 11.022 17.864 6.719 4.808 22.902 1.729 30.861 1.729h295.987c33.692 0 72.612 5.478 105.771-.247 11.588-2.003 14.67-23.133 17.078-32.8 10.631-42.724 8.351-89.484-5.536-131.175C447.299 76.46 339.151 3.854 227.761 19.017M39.406 356.331c2.061 7.153 7.342 13.412 14.086 17.5 5.968 3.62 16.284 1.728 22.991 1.728h312.803c29.946 0 72.171 16.023 82.324-19.228zm18.498 33.634c15.818 27.762 49.535 17.148 77.739 17.148h228.716c28.974 0 72.527 11.328 88.753-17.148zm28.591 33.636c14.8 20.937 47.626 13.453 70.633 13.453h193.398c23.545 0 58.875 7.939 73.997-13.453zm42.042 33.634v1.682c17.663 10.649 40.533 6.726 60.542 6.726h131.176c20.009 0 44.877 4.56 62.224-6.726-19.665-8.252-54.272-1.682-75.678-1.682zm82.406 31.953v1.681a243.3 243.3 0 0 0 89.131 0l-28.589-1.681z" style="fill:#f9f3eb;fill-rule:nonzero"/><path d="M199.701 64.361c1.85-3.713 4.867-3.388 10.489-6.697 13.428-7.903 36.852-20.823 54.994-30.698 5.018-2.73 9.244-7.942 13.517-7.322s7.149 4.926 12.114 11.041c25.267 33.508 51.314 63.379 80.744 103.771 3.613 4.961 9.754 10.201 11.002 15.386 1.246 5.185-2.351 10.586-3.519 15.724-11.485 50.5-22.564 91.224-33.484 128.148 22.458-10.625 42.592-19.236 56.417-22.38 6.082-1.382 12.501-2.518 14.244-.679 1.745 1.839-2.529 7.801-3.781 11.709-11.943 37.301-23.547 75.813-49.315 135.547-11.689 27.098-10.362 44.603-18.023 56.237-14.866 22.571-57.779 27.591-83.469 26.195-31.022-1.684-85.983-10.284-100.511-26.628-29.474-33.161-33.087-83.104-59.814-166.328 0 0-8.579-19.578-5.407-28.984 6.993-20.738 27.942-83.867 38.295-111.187 2.336-6.165 2.312-11.436 5.107-12.126 2.795-.691 7.311 4.372 11.661 7.983 12.255 10.171 28.53 27.598 51.708 49.922-1.364-42.582-4.537-102.239-4.243-131.718.087-8.592-.686-12.98 1.274-16.916" style="fill:#02001a;fill-rule:nonzero"/><path d="M294.182 490.109c7.497-1.202 9.29-7.851 12.369-13.999 0 0 92.838-181.479 99.653-197.851l-45.743 16.799-16.009 7.138zM398.327 303.457l-91.484 183.852c6.909-1.02 21.48-4.204 26.073-9.798 8-9.775 56.943-148.602 61.116-159.122 1.71-4.307 5.246-10.315 4.295-14.932M371.321 175.602 230.362 489.176s31.541 4.445 41.075 4.664c5.487.127 16.121-3.348 16.121-3.348zM206.865 66.109v.932l165.231 77.461-85.508-110.124-7.878-7.627zM204.999 70.761l3.733 147.454 166.166-68.126zM226.469 488.242l148.429-332.238-165.603 69.429 5.999 258.677zM146.2 169.069c10.31 79.814 51.98 276.621 55.824 295.842 1.43 7.155.955 16.506 8.589 19.598l-6.561-260.374zM139.521 170.935c-8.211 25.225-35.668 98.906-35.214 109.191.554 12.526 68.322 161.442 75.895 179.185 4.447 10.419 6.643 19.328 19.064 21.465l-13.64-70.927zM108.585 309.99c8.951 38.681 22.991 76.674 34.144 114.791 6.552 22.394 11.438 42.158 36.803 49.462-12.849-37.735-31.547-74.447-47.347-111.057-7.027-16.282-12.482-39.438-23.6-53.196" style="fill:#0ba4af;fill-rule:nonzero"/></svg>
